<svg width="40" height="40" viewBox="0 0 40 40" fill="none" xmlns="http://www.w3.org/2000/svg">
<path d="M14.5437 4.36875C14.8187 3.55 15.5813 3 16.4438 3H23.5625C24.425 3 25.1875 3.55 25.4625 4.36875L26 6H32C33.1063 6 34 6.89375 34 8C34 9.10625 33.1063 10 32 10H8C6.89375 10 6 9.10625 6 8C6 6.89375 6.89375 6 8 6H14L14.5437 4.36875ZM8 13H32V32C32 34.2062 30.2062 36 28 36H12C9.79375 36 8 34.2062 8 32V13ZM13.5 17C12.6687 17 12 17.6687 12 18.5V30.5C12 31.3312 12.6687 32 13.5 32C14.3313 32 15 31.3312 15 30.5V18.5C15 17.6687 14.3313 17 13.5 17ZM20 17C19.1687 17 18.5 17.6687 18.5 18.5V30.5C18.5 31.3312 19.1687 32 20 32C20.8313 32 21.5 31.3312 21.5 30.5V18.5C21.5 17.6687 20.8313 17 20 17ZM26.5 17C25.6688 17 25 17.6687 25 18.5V30.5C25 31.3312 25.6688 32 26.5 32C27.3312 32 28 31.3312 28 30.5V18.5C28 17.6687 27.3312 17 26.5 17Z" fill="#D72222"/>
</svg>
